<?xml version="1.0" standalone="no"?>
<!DOCTYPE svg PUBLIC "-//W3C//DTD SVG 20010904//EN"
 "http://www.w3.org/TR/2001/REC-SVG-20010904/DTD/svg10.dtd">
<svg version="1.0" xmlns="http://www.w3.org/2000/svg"
 width="600.000000pt" height="600.000000pt" viewBox="0 0 600.000000 600.000000"
 preserveAspectRatio="xMidYMid meet">
<metadata>
Created by potrace 1.16, written by Peter Selinger 2001-2019
</metadata>
<g transform="translate(0.000000,600.000000) scale(0.100000,-0.100000)"
fill="#000000" stroke="none">
<path d="M0 3000 l0 -3000 3000 0 3000 0 0 3000 0 3000 -3000 0 -3000 0 0
-3000z m2871 2363 c18 -43 61 -159 95 -258 l61 -180 54 -7 c60 -7 179 -10 179
-4 0 2 15 90 34 197 49 278 50 287 36 304 -12 14 -8 15 31 9 24 -4 47 -9 50
-13 11 -10 49 -241 57 -340 l7 -91 71 108 c97 145 175 242 196 242 9 0 29 -5
45 -11 28 -11 28 -11 6 -20 -13 -4 -23 -10 -23 -13 0 -3 -31 -105 -70 -227
-38 -123 -70 -228 -70 -235 0 -12 22 -24 43 -24 7 0 31 24 53 53 52 66 144
168 246 274 l80 83 29 -15 c21 -12 29 -23 29 -43 0 -43 -36 -231 -72 -380
l-33 -133 25 -19 c13 -10 27 -17 31 -14 21 13 280 407 275 419 -3 8 -3 15 1
15 11 0 137 -94 179 -135 39 -37 44 -47 44 -86 0 -81 -65 -149 -143 -149 -35
0 -37 -2 -31 -25 10 -41 -3 -71 -61 -135 -30 -35 -52 -67 -49 -75 7 -18 54
-48 62 -40 4 4 83 79 175 168 122 117 167 166 164 179 -8 31 8 20 54 -34 24
-29 36 -49 26 -45 -12 5 -31 -5 -60 -31 -23 -21 -59 -54 -80 -72 -25 -23 -34
-37 -27 -44 15 -15 279 -14 288 2 6 8 14 4 30 -18 24 -31 30 -52 10 -32 -8 8
-55 12 -144 12 l-132 0 -6 -26 c-4 -14 -32 -84 -62 -155 l-55 -128 22 -31 c13
-16 24 -30 26 -30 8 0 388 255 395 265 4 5 6 17 3 25 -16 48 120 -163 156
-244 12 -25 11 -30 -6 -42 -28 -21 -37 -17 -21 9 14 21 12 28 -28 102 -24 44
-47 80 -51 79 -13 -1 -204 -119 -205 -126 -1 -21 73 -124 92 -128 21 -5 20 -7
-14 -28 -44 -27 -52 -28 -36 -2 11 18 8 29 -21 85 -19 36 -37 65 -39 65 -7 0
-173 -104 -178 -112 -3 -5 16 -46 43 -91 26 -45 62 -112 79 -150 17 -37 33
-70 36 -72 3 -3 97 29 209 70 112 42 210 78 217 80 17 6 15 23 -8 73 -16 35
-24 42 -47 42 -32 0 -21 15 17 25 23 5 27 2 37 -32 21 -70 92 -268 102 -284 8
-13 5 -18 -12 -23 -12 -3 -31 -5 -42 -5 -18 0 -18 1 3 12 25 12 26 40 4 98
l-10 26 -217 -73 c-120 -40 -220 -76 -223 -79 -3 -3 4 -33 16 -68 62 -181 95
-383 95 -597 1 -227 -29 -419 -97 -617 l-24 -72 26 -10 27 -9 -30 -1 c-27 -1
-32 -7 -52 -56 -29 -71 -29 -77 6 -98 51 -30 112 -22 213 28 97 48 132 54 178
30 67 -35 81 -157 26 -229 -29 -39 -45 -43 -91 -21 l-30 15 36 -5 c32 -5 40
-1 63 26 53 62 19 137 -66 146 -40 5 -57 0 -120 -32 -40 -21 -89 -42 -108 -46
-44 -10 -100 4 -137 35 l-29 24 -16 -28 c-12 -22 -13 -31 -5 -38 37 -28 411
-213 423 -208 20 8 18 -3 -16 -62 -28 -49 -49 -70 -37 -37 7 17 -16 34 -122
94 -41 23 -77 38 -81 34 -4 -4 -30 -45 -58 -90 l-51 -81 92 -63 c51 -35 100
-62 110 -61 23 1 23 0 -20 -60 -32 -44 -38 -49 -41 -31 -2 15 -63 66 -191 162
-103 78 -191 141 -195 141 -9 0 -45 -41 -46 -51 0 -4 83 -75 185 -159 150
-123 189 -150 207 -144 17 5 12 -5 -23 -50 -47 -60 -56 -66 -55 -37 1 21 -344
331 -368 331 -7 0 -20 -10 -28 -21 -13 -21 -9 -27 82 -114 201 -194 253 -240
271 -239 28 1 24 -7 -30 -60 -37 -36 -48 -44 -44 -28 4 17 -10 38 -67 97 -40
41 -77 72 -81 69 -5 -3 -9 -68 -9 -145 0 -118 2 -141 16 -146 13 -5 11 -10
-13 -29 -31 -26 -52 -32 -34 -10 8 9 9 52 5 143 l-7 130 -71 23 c-39 12 -112
39 -162 60 -83 35 -92 36 -117 23 -15 -7 -27 -20 -27 -27 0 -7 62 -100 138
-207 96 -133 145 -195 162 -199 20 -5 17 -9 -33 -43 -65 -43 -67 -43 -60 -19
3 13 -41 87 -127 218 -73 109 -136 203 -140 208 -5 4 -28 -3 -52 -18 -33 -20
-38 -26 -21 -26 13 0 31 -12 43 -30 l22 -30 -36 21 c-86 50 -162 -17 -120
-106 26 -56 70 -83 169 -105 95 -20 130 -40 158 -88 33 -56 -7 -143 -84 -182
-59 -30 -95 -27 -119 12 -29 48 -25 55 10 18 24 -26 35 -31 56 -26 71 18 101
75 70 135 -23 43 -50 58 -150 83 -134 32 -183 85 -173 184 l5 53 -26 -11 c-15
-7 -35 -19 -46 -29 -18 -17 -16 -24 75 -244 67 -163 99 -229 113 -234 23 -9
18 -13 -54 -40 -66 -25 -66 -25 -50 -6 10 12 7 31 -20 103 -18 48 -36 97 -41
109 l-8 21 -68 -23 c-37 -12 -83 -26 -101 -30 -24 -5 -31 -11 -28 -23 3 -10
17 -59 30 -110 14 -54 32 -99 42 -106 15 -11 11 -14 -32 -25 -27 -6 -57 -14
-67 -17 -16 -5 -17 -3 -6 13 9 16 6 42 -15 134 -15 63 -38 166 -52 229 -30
133 -34 144 -61 148 -32 5 -40 -16 -57 -147 -15 -112 -32 -203 -67 -363 -13
-58 -13 -58 -49 -58 -30 0 -39 5 -49 27 -35 77 -98 242 -136 357 -34 105 -47
131 -67 142 -26 14 -178 21 -196 10 -11 -7 -20 -44 -53 -231 -37 -217 -42
-264 -28 -281 10 -13 7 -14 -32 -8 -24 4 -47 9 -51 13 -11 10 -48 234 -56 339
l-7 94 -55 -84 c-96 -146 -192 -268 -211 -268 -10 0 -30 5 -46 11 -26 10 -26
12 -8 19 15 6 29 36 54 116 19 60 44 141 56 179 61 191 60 186 41 201 -25 18
-38 10 -89 -55 -55 -69 -144 -170 -244 -273 l-75 -78 -29 15 c-23 12 -29 22
-29 49 0 49 46 285 79 408 l29 107 -26 17 c-32 21 -20 34 -189 -211 -80 -117
-122 -186 -119 -198 6 -26 -9 -18 -97 47 -100 74 -127 107 -127 157 0 80 52
139 129 147 49 4 49 4 44 37 -6 40 8 67 70 135 26 28 47 55 47 59 0 10 -48 51
-60 51 -20 0 -350 -333 -350 -353 0 -19 -1 -19 -26 4 -14 13 -35 36 -46 52
-19 26 -19 27 -1 25 12 -2 49 25 97 69 l77 72 -28 8 c-48 13 -263 10 -271 -5
-6 -8 -14 -4 -30 18 -24 31 -30 52 -10 32 8 -8 54 -12 143 -12 l130 0 23 67
c13 38 41 106 63 152 40 85 40 90 7 128 l-20 21 -199 -130 c-155 -101 -199
-135 -199 -152 -1 -25 -70 79 -128 192 -36 71 -36 73 -18 88 30 21 38 17 21
-10 -16 -23 -14 -28 25 -98 23 -40 45 -76 48 -80 4 -4 49 20 101 52 52 33 98
61 104 63 6 2 -7 33 -27 69 -26 47 -44 68 -59 70 -20 3 -18 6 16 27 38 23 60
25 33 1 -13 -10 -12 -19 14 -68 16 -32 33 -63 38 -70 7 -11 29 -1 101 43 50
31 91 59 91 61 0 8 -95 159 -102 162 -4 2 -8 10 -8 18 0 8 -14 41 -30 74 l-30
60 -68 -26 c-37 -14 -107 -40 -157 -59 -182 -67 -205 -77 -205 -88 0 -6 7 -31
16 -54 15 -38 20 -43 47 -43 38 0 25 -15 -20 -25 -26 -5 -32 -4 -28 7 3 7 -6
42 -20 77 -14 34 -37 100 -52 144 -14 45 -29 87 -34 93 -10 12 19 24 56 23 19
0 18 -1 -2 -11 -26 -13 -27 -22 -12 -84 7 -26 16 -43 23 -40 6 2 106 36 222
76 l212 71 -34 102 c-111 344 -122 719 -30 1072 15 55 33 117 41 138 19 48 19
55 -3 60 -14 4 -13 5 4 6 16 1 28 17 49 67 25 60 26 67 12 81 -9 10 -39 18
-72 21 -50 4 -63 0 -150 -43 -82 -42 -100 -47 -137 -42 -64 9 -98 51 -98 122
0 62 12 100 42 133 25 25 41 27 83 6 l30 -14 -32 5 c-43 6 -61 -2 -78 -36 -23
-43 -18 -77 14 -110 42 -42 86 -39 190 11 111 54 143 58 206 26 46 -24 51 -25
63 -9 6 9 12 22 12 27 0 6 -92 58 -205 115 -178 91 -206 103 -220 91 -10 -9
-4 11 16 53 18 37 37 67 41 67 4 0 5 -6 2 -13 -3 -8 1 -19 8 -24 21 -18 191
-113 194 -110 2 2 28 42 57 89 l54 86 -89 62 c-66 46 -96 61 -114 57 -13 -2
-24 -2 -24 0 0 6 82 113 87 113 2 0 3 -8 1 -17 -2 -12 52 -59 177 -154 99 -76
185 -138 191 -138 17 -1 59 48 48 58 -10 10 -179 149 -244 201 -24 19 -59 48
-77 64 -22 19 -40 26 -54 23 -14 -4 -18 -2 -11 6 70 93 77 99 82 78 3 -12 84
-91 180 -175 l175 -154 25 25 25 24 -170 165 c-139 134 -174 163 -192 159 -13
-3 -23 -4 -23 -2 0 1 24 27 54 56 44 44 53 49 49 29 -3 -18 11 -38 71 -97 l75
-74 6 36 c11 58 2 257 -12 265 -8 5 -1 17 22 35 19 15 35 23 35 18 0 -5 -5
-13 -10 -16 -7 -5 -9 -52 -6 -138 l6 -132 94 -31 c51 -18 121 -44 154 -59 l61
-27 35 22 c43 26 55 0 -113 235 -87 122 -135 181 -151 185 -21 5 -18 9 31 43
62 42 69 44 62 18 -3 -12 39 -86 127 -219 l133 -201 28 15 c30 15 36 28 19 39
-5 3 -15 16 -21 27 -11 21 -11 21 25 -1 32 -20 40 -21 71 -11 74 24 81 92 16
160 -31 32 -47 40 -116 54 -106 23 -131 33 -160 68 -37 44 -41 74 -17 123 27
56 80 96 136 102 40 5 44 3 64 -30 31 -48 27 -57 -7 -19 -34 36 -39 37 -86 17
-66 -27 -72 -114 -10 -160 21 -16 67 -34 121 -47 73 -17 94 -27 128 -59 38
-35 41 -41 41 -93 0 -62 6 -66 55 -41 l30 15 -18 43 c-142 352 -169 410 -184
415 -29 7 -21 16 35 36 28 10 59 21 67 24 13 5 13 3 1 -11 -12 -15 -9 -30 19
-110 50 -139 41 -130 103 -107 28 10 73 24 98 30 l46 12 -29 111 c-16 61 -37
116 -45 122 -13 10 -8 14 33 24 27 6 57 14 67 17 16 5 17 3 6 -14 -10 -15 -4
-55 35 -223 25 -112 49 -219 52 -237 8 -39 16 -45 53 -37 27 6 28 8 40 108 10
82 42 260 78 425 4 18 12 22 43 22 38 0 38 0 71 -77z m-2120 -2292 c63 -63 23
-161 -66 -161 -30 0 -47 6 -63 23 -86 92 39 227 129 138z m4635 -12 c34 -32
33 -96 -1 -133 -18 -20 -34 -26 -65 -26 -101 0 -136 126 -49 177 32 18 86 9
115 -18z"/>
<path d="M2767 5355 c-27 -127 -59 -317 -54 -321 11 -11 197 9 197 21 0 13
-61 163 -107 265 -29 63 -30 64 -36 35z"/>
<path d="M3320 5095 c-18 -102 -31 -187 -28 -191 5 -4 111 -33 129 -34 6 0
-22 224 -42 338 -7 39 -16 72 -19 72 -3 0 -21 -83 -40 -185z"/>
<path d="M3598 5127 c-78 -108 -158 -236 -158 -252 0 -13 111 -38 121 -27 4 4
23 68 44 142 20 74 43 155 51 179 8 25 13 46 11 47 -2 2 -33 -38 -69 -89z"/>
<path d="M3963 5084 c-34 -38 -87 -96 -117 -129 -31 -33 -55 -62 -55 -65 -1
-8 178 -94 184 -89 7 7 56 320 53 337 -2 9 -28 -13 -65 -54z"/>
<path d="M2373 5079 c-51 -17 -93 -35 -93 -42 0 -11 76 -216 82 -223 2 -1 28
6 58 16 30 11 62 20 70 20 43 1 44 13 15 131 -16 63 -31 117 -34 121 -3 4 -48
-7 -98 -23z"/>
<path d="M2774 5018 l-71 -10 -6 -51 c-4 -28 -5 -52 -3 -54 4 -4 259 17 263
21 1 1 -5 25 -14 54 -17 52 -17 52 -57 51 -23 -1 -73 -6 -112 -11z"/>
<path d="M4346 4877 c-38 -50 -70 -96 -72 -102 -5 -16 67 -65 97 -65 55 0 119
77 119 145 0 45 -12 68 -48 94 l-28 20 -68 -92z"/>
<path d="M2850 4864 c-396 -47 -683 -154 -963 -361 -186 -138 -407 -384 -478
-533 -16 -36 -36 -69 -42 -75 -27 -22 -47 -66 -47 -102 0 -38 -18 -76 -47
-100 -29 -23 -97 -258 -124 -428 -17 -107 -18 -418 0 -525 24 -153 80 -359
106 -390 7 -8 22 -47 34 -85 24 -81 142 -290 228 -403 287 -376 747 -644 1223
-712 109 -16 410 -16 520 0 560 80 1072 425 1353 912 31 53 63 118 72 145 9
26 23 58 31 70 23 37 73 181 99 288 66 275 66 608 -1 876 -153 618 -608 1122
-1190 1318 -229 77 -353 100 -579 105 -88 2 -176 2 -195 0z m-650 -774 c44 -7
99 -27 170 -62 58 -29 108 -54 112 -55 13 -6 38 29 48 67 9 34 15 40 37 40
l26 0 -6 -122 c-4 -66 -7 -177 -7 -245 l0 -123 -30 0 c-28 0 -30 3 -30 38 0
105 -74 268 -153 337 -167 147 -449 94 -512 -96 -23 -68 -17 -178 13 -235 31
-61 114 -137 225 -207 263 -166 377 -245 434 -303 63 -64 123 -155 123 -186 0
-53 21 5 74 205 34 125 62 251 64 289 4 62 2 67 -21 82 -13 9 -48 19 -76 23
-43 5 -51 9 -51 27 0 21 1 21 275 21 l275 0 5 -30 c4 -28 27 -229 60 -540 51
-468 71 -626 80 -626 9 0 86 117 312 474 37 59 155 244 261 411 l193 303 287
6 c157 3 287 5 289 4 1 -2 0 -12 -3 -24 -5 -17 -16 -22 -67 -28 -128 -14 -148
-43 -221 -325 -31 -121 -94 -357 -233 -875 -94 -350 -91 -377 36 -392 43 -5
51 -9 51 -27 l0 -21 -385 0 c-377 0 -386 0 -383 19 2 16 16 22 70 31 73 12
113 35 140 81 15 25 123 414 328 1182 28 107 50 195 48 198 -5 5 5 21 -303
-463 -138 -216 -270 -424 -295 -463 -25 -39 -121 -189 -214 -335 -156 -246
-171 -265 -197 -265 -16 0 -29 2 -29 4 0 28 -188 1448 -193 1452 -5 5 -148
-554 -159 -623 -5 -37 -18 -86 -29 -110 -10 -24 -43 -137 -74 -252 -73 -276
-73 -340 2 -383 17 -10 54 -21 82 -25 43 -5 51 -9 51 -27 0 -21 -2 -21 -250
-21 -137 0 -250 3 -250 7 0 21 15 38 32 38 76 0 150 52 191 133 23 45 119 366
112 375 -1 1 -29 -14 -61 -33 -85 -51 -144 -67 -278 -72 -150 -7 -203 4 -334
70 -118 59 -129 58 -151 -16 -12 -38 -19 -47 -38 -47 l-23 0 0 193 c0 105 3
236 7 290 6 92 7 97 29 97 20 0 23 -6 29 -57 17 -149 80 -305 153 -380 77 -80
208 -121 330 -103 153 21 246 121 259 278 5 58 2 84 -17 142 -37 116 -117 185
-457 398 -224 139 -323 285 -323 472 0 281 232 457 540 410z"/>
<path d="M3740 4830 c-18 -23 -31 -42 -29 -44 10 -8 223 -106 230 -106 8 0 13
15 24 67 6 32 6 32 -84 78 -50 25 -95 45 -100 45 -5 0 -24 -18 -41 -40z"/>
<path d="M4185 4663 c-35 -49 -65 -92 -64 -98 0 -17 102 -90 107 -76 2 6 23
34 45 63 52 62 67 88 67 112 0 19 -61 86 -79 86 -6 0 -40 -39 -76 -87z"/>
<path d="M1533 4585 c-3 -9 -4 -17 -1 -18 2 -1 40 -37 84 -80 l80 -78 47 41
c26 23 47 45 47 50 0 4 -12 13 -27 18 -16 6 -72 26 -126 46 -83 31 -99 34
-104 21z"/>
<path d="M4524 4477 c-11 -12 -49 -48 -82 -80 l-62 -58 42 -50 c22 -27 44 -49
48 -49 8 0 89 190 96 229 8 38 -10 41 -42 8z"/>
<path d="M1255 4238 c-15 -23 -40 -63 -56 -89 l-28 -48 91 -50 c50 -28 92 -51
93 -51 6 0 107 152 103 154 -2 2 -42 30 -90 64 l-86 61 -27 -41z"/>
<path d="M4590 1932 c-25 -37 -45 -73 -45 -79 0 -7 40 -42 90 -76 l90 -64 32
45 c39 55 79 130 73 135 -8 6 -190 107 -192 107 -2 0 -23 -31 -48 -68z"/>
<path d="M1521 1723 c-18 -39 -91 -222 -91 -228 0 -19 38 6 113 76 l87 81 -41
49 c-22 27 -44 49 -48 49 -4 0 -13 -12 -20 -27z"/>
<path d="M4248 1547 c-27 -24 -48 -46 -48 -49 0 -9 207 -89 246 -95 19 -3 34
-2 34 3 0 9 -171 184 -180 184 -3 -1 -26 -20 -52 -43z"/>
<path d="M1776 1513 c-3 -4 -6 -13 -6 -21 0 -8 -22 -41 -50 -74 -67 -81 -68
-113 -1 -162 l33 -25 70 95 c38 52 68 98 66 103 -5 15 -106 90 -112 84z"/>
<path d="M2051 1276 c-6 -25 -11 -50 -11 -55 0 -10 170 -101 188 -101 17 0 75
81 65 91 -8 8 -134 68 -219 105 -7 3 -16 -14 -23 -40z"/>
<path d="M1580 1254 c-66 -56 -81 -141 -32 -193 15 -17 32 -32 38 -33 6 -2 43
40 82 92 l72 95 -37 33 c-45 39 -81 41 -123 6z"/>
<path d="M2030 1190 c0 -3 -13 -83 -28 -177 -16 -95 -26 -173 -23 -173 7 0
234 248 238 259 2 3 -40 26 -92 51 -52 25 -95 43 -95 40z"/>
<path d="M3535 1161 c-30 -11 -51 -25 -53 -35 -3 -13 45 -229 54 -244 1 -1 45
11 99 28 112 36 108 20 50 173 -36 95 -38 97 -69 96 -17 0 -53 -8 -81 -18z"/>
<path d="M2441 1128 c-17 -43 -101 -351 -97 -355 2 -3 10 6 17 19 6 12 25 39
40 59 16 20 62 88 103 152 40 64 76 113 80 110 3 -4 6 -22 6 -42 -1 -55 53
-373 61 -358 3 6 21 92 39 190 28 153 31 180 19 192 -14 13 -194 55 -237 55
-14 0 -26 -9 -31 -22z"/>
<path d="M3235 1099 c-27 -4 -73 -8 -101 -8 -27 -1 -58 -7 -68 -14 -17 -13
-17 -15 0 -65 21 -60 17 -59 156 -41 l88 12 0 37 c0 21 3 45 6 53 9 23 -25 34
-81 26z"/>
<path d="M3165 953 c-27 -2 -55 -6 -62 -8 -9 -3 2 -37 33 -112 25 -59 55 -130
66 -158 11 -27 23 -54 27 -58 7 -7 20 56 68 316 6 30 7 30 -132 20z"/>
</g>
</svg>
